HIERARCHY
ROOT Hips
{
	OFFSET -1.294550 93.952600 21.124400
	CHANNELS 6 Xposition Yposition Zposition Zrotation Yrotation Xrotation 
	JOINT Spine
	{
		OFFSET 0.000000 9.923500 -1.227300
		CHANNELS 3 Zrotation Yrotation Xrotation
		JOINT Spine1
		{
			OFFSET -0.000100 11.645400 -1.422300
			CHANNELS 3 Zrotation Yrotation Xrotation
			JOINT Spine2
			{
				OFFSET 0.000100 13.360200 -1.626500
				CHANNELS 3 Zrotation Yrotation Xrotation
				JOINT Neck
				{
					OFFSET 0.000000 15.032500 0.792900
					CHANNELS 3 Zrotation Yrotation Xrotation
					JOINT Head
					{
						OFFSET 0.000000 10.321800 3.142400
						CHANNELS 3 Zrotation Yrotation Xrotation
						JOINT HeadTop_End
						{
							OFFSET 0.000200 18.474700 6.636400
							CHANNELS 3 Zrotation Yrotation Xrotation
							End Site
							{
								OFFSET 0.000000 0.000000 0.000000
							}
						}
						JOINT LeftEye
						{
							OFFSET 2.947900 7.681700 9.120700
							CHANNELS 3 Zrotation Yrotation Xrotation
							End Site
							{
								OFFSET 0.000000 0.000000 0.000000
							}
						}
						JOINT RightEye
						{
							OFFSET -2.944500 7.681700 9.120500
							CHANNELS 3 Zrotation Yrotation Xrotation
							End Site
							{
								OFFSET 0.000000 0.000000 0.000000
							}
						}
					}
				}
				JOINT LeftShoulder
				{
					OFFSET 6.105800 9.110400 0.705600
					CHANNELS 3 Zrotation Yrotation Xrotation
					JOINT LeftArm
					{
						OFFSET 12.655000 -0.265900 -2.600900
						CHANNELS 3 Zrotation Yrotation Xrotation
						JOINT LeftForeArm
						{
							OFFSET 27.404700 0.000000 0.000000
							CHANNELS 3 Zrotation Yrotation Xrotation
							JOINT LeftHand
							{
								OFFSET 27.614500 0.000000 0.000000
								CHANNELS 3 Zrotation Yrotation Xrotation
								JOINT LeftHandMiddle1
								{
									OFFSET 12.775500 0.000000 0.000000
									CHANNELS 3 Zrotation Yrotation Xrotation
									JOINT LeftHandMiddle2
									{
										OFFSET 3.614000 0.000000 0.000000
										CHANNELS 3 Zrotation Yrotation Xrotation
										JOINT LeftHandMiddle3
										{
											OFFSET 3.459800 0.000000 0.000000
											CHANNELS 3 Zrotation Yrotation Xrotation
											End Site
											{
												OFFSET 0.000000 0.000000 0.000000
											}
										}
									}
								}
								JOINT LeftHandThumb1
								{
									OFFSET 3.788800 -2.167000 3.003100
									CHANNELS 3 Zrotation Yrotation Xrotation
									JOINT LeftHandThumb2
									{
										OFFSET 3.675400 -2.122000 2.122000
										CHANNELS 3 Zrotation Yrotation Xrotation
										JOINT LeftHandThumb3
										{
											OFFSET 3.394400 -1.959700 1.959800
											CHANNELS 3 Zrotation Yrotation Xrotation
											End Site
											{
												OFFSET 0.000000 0.000000 0.000000
											}
										}
									}
								}
								JOINT LeftHandIndex1
								{
									OFFSET 12.266600 -0.231700 2.822100
									CHANNELS 3 Zrotation Yrotation Xrotation
									JOINT LeftHandIndex2
									{
										OFFSET 3.892000 0.000000 0.000000
										CHANNELS 3 Zrotation Yrotation Xrotation
										JOINT LeftHandIndex3
										{
											OFFSET 3.415200 0.000000 0.000000
											CHANNELS 3 Zrotation Yrotation Xrotation
											End Site
											{
												OFFSET 0.000000 0.000000 0.000000
											}
										}
									}
								}
								JOINT LeftHandRing1
								{
									OFFSET 12.147000 0.009900 -2.216600
									CHANNELS 3 Zrotation Yrotation Xrotation
									JOINT LeftHandRing2
									{
										OFFSET 3.601200 0.000000 0.000000
										CHANNELS 3 Zrotation Yrotation Xrotation
										JOINT LeftHandRing3
										{
											OFFSET 3.307300 0.000000 0.000000
											CHANNELS 3 Zrotation Yrotation Xrotation
											End Site
											{
												OFFSET 0.000000 0.000000 0.000000
											}
										}
									}
								}
								JOINT LeftHandPinky1
								{
									OFFSET 10.908200 -0.226400 -4.725800
									CHANNELS 3 Zrotation Yrotation Xrotation
									JOINT LeftHandPinky2
									{
										OFFSET 4.136700 0.000000 0.000000
										CHANNELS 3 Zrotation Yrotation Xrotation
										JOINT LeftHandPinky3
										{
											OFFSET 2.594800 0.000000 0.000000
											CHANNELS 3 Zrotation Yrotation Xrotation
											End Site
											{
												OFFSET 0.000000 0.000000 0.000000
											}
										}
									}
								}
							}
						}
					}
				}
				JOINT RightShoulder
				{
					OFFSET -6.105700 9.110500 0.705600
					CHANNELS 3 Zrotation Yrotation Xrotation
					JOINT RightArm
					{
						OFFSET -12.655000 -0.266000 -2.600900
						CHANNELS 3 Zrotation Yrotation Xrotation
						JOINT RightForeArm
						{
							OFFSET -27.404700 0.000000 0.000000
							CHANNELS 3 Zrotation Yrotation Xrotation
							JOINT RightHand
							{
								OFFSET -27.614500 0.000000 0.000000
								CHANNELS 3 Zrotation Yrotation Xrotation
								JOINT RightHandMiddle1
								{
									OFFSET -12.775500 0.000000 0.000000
									CHANNELS 3 Zrotation Yrotation Xrotation
									JOINT RightHandMiddle2
									{
										OFFSET -3.614000 0.000000 0.000000
										CHANNELS 3 Zrotation Yrotation Xrotation
										JOINT RightHandMiddle3
										{
											OFFSET -3.459800 0.000000 0.000000
											CHANNELS 3 Zrotation Yrotation Xrotation
											End Site
											{
												OFFSET 0.000000 0.000000 0.000000
											}
										}
									}
								}
								JOINT RightHandThumb1
								{
									OFFSET -3.788800 -2.167000 3.003100
									CHANNELS 3 Zrotation Yrotation Xrotation
									JOINT RightHandThumb2
									{
										OFFSET -3.675400 -2.122000 2.122000
										CHANNELS 3 Zrotation Yrotation Xrotation
										JOINT RightHandThumb3
										{
											OFFSET -3.394400 -1.959700 1.959800
											CHANNELS 3 Zrotation Yrotation Xrotation
											End Site
											{
												OFFSET 0.000000 0.000000 0.000000
											}
										}
									}
								}
								JOINT RightHandIndex1
								{
									OFFSET -12.266600 -0.231700 2.822100
									CHANNELS 3 Zrotation Yrotation Xrotation
									JOINT RightHandIndex2
									{
										OFFSET -3.892000 0.000000 0.000000
										CHANNELS 3 Zrotation Yrotation Xrotation
										JOINT RightHandIndex3
										{
											OFFSET -3.415200 0.000000 0.000000
											CHANNELS 3 Zrotation Yrotation Xrotation
											End Site
											{
												OFFSET 0.000000 0.000000 0.000000
											}
										}
									}
								}
								JOINT RightHandRing1
								{
									OFFSET -12.147000 0.009900 -2.216600
									CHANNELS 3 Zrotation Yrotation Xrotation
									JOINT RightHandRing2
									{
										OFFSET -3.601200 0.000000 0.000000
										CHANNELS 3 Zrotation Yrotation Xrotation
										JOINT RightHandRing3
										{
											OFFSET -3.307300 0.000000 0.000000
											CHANNELS 3 Zrotation Yrotation Xrotation
											End Site
											{
												OFFSET 0.000000 0.000000 0.000000
											}
										}
									}
								}
								JOINT RightHandPinky1
								{
									OFFSET -10.908200 -0.226400 -4.725800
									CHANNELS 3 Zrotation Yrotation Xrotation
									JOINT RightHandPinky2
									{
										OFFSET -4.136700 0.000000 0.000000
										CHANNELS 3 Zrotation Yrotation Xrotation
										JOINT RightHandPinky3
										{
											OFFSET -2.594800 0.000000 0.000000
											CHANNELS 3 Zrotation Yrotation Xrotation
											End Site
											{
												OFFSET 0.000000 0.000000 0.000000
											}
										}
									}
								}
							}
						}
					}
				}
			}
		}
	}
	JOINT RightUpLeg
	{
		OFFSET -9.124500 -6.656400 -0.055400
		CHANNELS 3 Zrotation Yrotation Xrotation
		JOINT RightLeg
		{
			OFFSET -0.244700 -40.595400 -0.514500
			CHANNELS 3 Zrotation Yrotation Xrotation
			JOINT RightFoot
			{
				OFFSET 0.244700 -42.047900 -2.060200
				CHANNELS 3 Zrotation Yrotation Xrotation
				JOINT RightToeBase
				{
					OFFSET -0.373400 -10.492200 12.640700
					CHANNELS 3 Zrotation Yrotation Xrotation
					End Site
					{
						OFFSET 0.000000 0.000000 0.000000
					}
				}
			}
		}
	}
	JOINT LeftUpLeg
	{
		OFFSET 9.124500 -6.656400 -0.055400
		CHANNELS 3 Zrotation Yrotation Xrotation
		JOINT LeftLeg
		{
			OFFSET 0.244700 -40.595400 -0.517000
			CHANNELS 3 Zrotation Yrotation Xrotation
			JOINT LeftFoot
			{
				OFFSET -0.244700 -42.048000 -2.057600
				CHANNELS 3 Zrotation Yrotation Xrotation
				JOINT LeftToeBase
				{
					OFFSET 0.373400 -10.492200 12.640700
					CHANNELS 3 Zrotation Yrotation Xrotation
					End Site
					{
						OFFSET 0.000000 0.000000 0.000000
					}
				}
			}
		}
	}
}
MOTION
Frames: 6
Frame Time: 0.016667
-1.294550 93.952600 569.884400 6.190610 24.111824 9.553762 -0.681179 -5.379896 8.036745 0.893182 -0.754370 0.785318 0.886037 -0.747061 0.919831 6.338567 -3.236171 4.565446 -6.816086 -4.945238 -4.907151 0.000000 0.000000 -0.000000 0.000000 0.000000 -0.000000 0.000000 0.000000 -0.000000 7.604281 -8.765760 -5.039078 -61.995625 6.154181 38.076432 -0.000133 -83.189800 0.000089 -13.586286 -3.176102 8.964984 -58.428332 6.941208 -3.252897 -82.564303 6.820927 -5.990201 -77.177325 6.713117 -5.428197 7.275218 15.741645 8.349572 -10.834885 6.820025 18.974639 13.578086 40.397202 4.077869 -56.362039 6.533550 -3.028708 -85.447705 6.856747 -6.333623 -77.986989 6.728976 -5.449914 -61.457825 7.510907 -3.618608 -77.981606 6.728864 -5.449299 -76.305934 6.690613 -5.340837 -63.992279 12.097574 -3.940944 -74.159822 5.505921 -1.072549 -75.723466 6.667733 -5.185871 1.409829 1.068210 0.608733 66.715452 -10.827417 -4.259893 0.000016 64.109300 0.000019 7.096993 1.231924 10.826033 4.281958 7.907141 0.125085 16.578275 -1.990615 -0.290054 11.259394 -1.362476 -0.134309 -9.546936 -17.127853 1.375410 1.152651 -3.466083 2.146108 -2.602331 2.621418 -2.876282 1.746895 9.029776 0.181364 13.291934 -1.604241 -0.186941 7.555360 -0.917608 -0.060601 7.218446 6.939316 0.058650 21.313204 -2.535162 -0.477114 15.432050 -1.856552 -0.251553 9.521149 6.439150 0.005522 25.669874 -3.020602 -0.688347 18.210995 -2.180149 -0.349471 1.468935 -10.245983 -24.041654 -2.005395 -2.352898 54.669189 0.523069 -3.589036 -2.872729 -2.938690 -0.382889 -34.781689 -3.346475 18.773094 -15.479241 14.942707 0.319071 32.657869 -1.516805 27.741766 -11.146329 0.000003 -0.000039 -4.779640 
-1.291020 93.704200 571.012900 5.967420 24.402812 9.624281 -0.309520 -5.011935 8.496164 0.809772 -0.695492 0.442682 0.803726 -0.690117 0.577166 6.323434 -3.169870 4.108527 -6.930115 -4.931512 -5.888314 -0.000000 0.000000 0.000000 -0.000000 0.000000 0.000000 -0.000000 0.000000 0.000000 7.378040 -8.786181 -5.013864 -60.630400 6.012364 38.495419 -0.000045 -84.419900 0.000032 -13.716840 -3.434608 8.360424 -58.025758 6.701831 -3.202787 -82.539202 6.820547 -5.987195 -77.180967 6.713708 -5.417056 7.434997 15.620134 8.208252 -10.834885 6.820025 18.974639 13.523515 40.354440 4.020040 -56.219611 6.337650 -3.002255 -85.447705 6.856747 -6.333623 -77.968185 6.728493 -5.447734 -60.722297 7.211751 -3.537138 -77.936775 6.727737 -5.444019 -76.332990 6.692003 -5.328306 -62.944812 11.740735 -3.831252 -74.159822 5.505921 -1.072549 -75.756401 6.668699 -5.189698 1.345682 1.807273 0.680166 65.382504 -11.753924 -4.413145 -0.000029 65.106800 -0.000002 7.174046 1.445506 10.433958 4.760307 7.626887 0.108097 15.982141 -1.921019 -0.269703 10.989671 -1.330267 -0.127977 -9.551571 -17.149549 1.389940 1.152651 -3.466083 2.146108 -2.594540 2.585186 -2.853226 2.212485 8.871511 0.171866 12.953547 -1.564132 -0.177570 7.495638 -0.910401 -0.059640 7.734813 6.499679 0.034036 20.345417 -2.425170 -0.435226 14.928487 -1.797425 -0.235524 10.088302 5.851489 -0.024500 24.321319 -2.872123 -0.619031 17.583488 -2.107516 -0.325983 0.391904 -11.180694 -26.856631 -1.200978 -2.761492 58.500711 3.515198 -3.517646 0.213709 -4.839359 -1.242789 -36.101228 -2.738816 18.566287 -15.520053 15.110809 0.334064 33.188737 -2.214865 27.790380 -11.513341 0.000004 -0.000010 -4.144130 
-1.297280 93.382200 572.103700 5.665118 24.694415 9.746546 0.088455 -4.691703 9.000006 0.762129 -0.645318 0.139937 0.757437 -0.641023 0.274438 6.307092 -3.079277 3.678058 -7.114680 -4.804238 -7.088863 -0.000000 0.000000 0.000000 -0.000000 0.000000 0.000000 -0.000000 0.000000 0.000000 7.290373 -8.747130 -5.008894 -59.146738 5.698427 39.004649 0.000074 -85.726600 0.000062 -13.931858 -3.628948 7.810829 -57.770513 6.519652 -3.163992 -82.522839 6.820262 -5.985247 -77.181607 6.714389 -5.404980 7.527845 15.515740 8.104043 -10.834885 6.820025 18.974639 13.483305 40.322921 3.977470 -56.166154 6.198626 -2.982774 -85.447705 6.856747 -6.333623 -77.955581 6.728201 -5.446240 -60.211011 6.971708 -3.471781 -77.905061 6.726932 -5.440315 -76.347157 6.693270 -5.314263 -62.195209 11.445804 -3.741133 -74.159822 5.505921 -1.072549 -75.770932 6.669110 -5.191353 1.365505 2.655152 0.767693 63.645212 -12.662943 -4.378029 0.000026 66.099000 -0.000032 7.321961 1.714128 10.054846 5.141034 7.315383 0.082178 15.343713 -1.846203 -0.248730 10.720859 -1.298117 -0.121805 -9.570051 -17.188123 1.406873 1.152651 -3.466083 2.146108 -2.587937 2.555205 -2.834200 2.628559 8.614281 0.148607 12.379936 -1.496024 -0.162234 7.419200 -0.901177 -0.058466 8.090608 6.109040 0.005804 19.569429 -2.336462 -0.402984 14.463626 -1.742687 -0.221163 10.436777 5.381068 -0.053563 23.379250 -2.767412 -0.572672 17.000352 -2.039771 -0.304879 -0.147692 -11.858353 -29.915309 -1.559902 -3.565584 62.436329 4.382630 -3.696816 0.088243 -4.625403 -0.971796 -32.423134 -2.020596 18.235112 -15.637028 15.214868 0.274650 33.930443 -2.996885 28.003767 -12.050429 0.000009 0.000003 -3.810350 
-1.316730 92.969400 573.148300 5.335553 24.974270 9.931837 0.433746 -4.426158 9.542444 0.755972 -0.605815 -0.086417 0.752899 -0.601420 0.048146 6.266362 -2.957923 3.290959 -7.314411 -4.577610 -8.491676 -0.000000 0.000000 0.000000 -0.000000 0.000000 0.000000 -0.000000 0.000000 0.000000 7.287365 -8.613490 -5.003384 -57.511472 5.169888 39.558978 0.000006 -87.066100 0.000055 -14.256876 -3.768432 7.313289 -57.654722 6.389418 -3.135878 -82.514609 6.820145 -5.984269 -77.177642 6.715038 -5.391202 7.569601 15.426700 8.030628 -10.834885 6.820025 18.974639 13.456215 40.301317 3.948567 -56.207571 6.119823 -2.971540 -85.447705 6.856747 -6.333623 -77.945619 6.727955 -5.445069 -59.899586 6.775299 -3.419458 -77.884938 6.726440 -5.437973 -76.348507 6.694344 -5.297681 -61.703754 11.188547 -3.665356 -74.159822 5.505921 -1.072549 -75.768397 6.669053 -5.191101 1.442951 3.592917 0.869459 61.551509 -13.519723 -4.182836 -0.000009 67.059400 0.000019 7.482568 2.074808 9.672272 5.467252 6.990667 0.054656 14.636066 -1.763016 -0.226436 10.466169 -1.267647 -0.116117 -9.595185 -17.231802 1.422524 1.152651 -3.466083 2.146108 -2.581241 2.524295 -2.814563 3.032589 8.287082 0.121757 11.564358 -1.398876 -0.141668 7.333958 -0.890887 -0.057090 8.337813 5.773030 -0.020943 18.930601 -2.263111 -0.377349 14.058882 -1.694949 -0.209010 10.628095 5.023395 -0.077719 22.760673 -2.698249 -0.543211 16.496228 -1.981035 -0.287199 -0.582046 -12.172686 -33.498160 -2.747756 -4.400868 66.233150 5.665196 -4.539440 -0.497381 -3.642063 -0.647604 -28.367176 -1.196940 17.815701 -15.816579 15.170147 0.142586 34.893924 -4.161258 28.257906 -12.962125 -0.000002 -0.000006 -3.920800 
-1.353400 92.454600 574.149800 5.027403 25.204492 10.189065 0.650746 -4.219470 10.090836 0.799051 -0.578198 -0.210377 0.797686 -0.572418 -0.075730 6.179182 -2.801548 2.953964 -7.489683 -4.258645 -10.038101 0.000000 0.000000 -0.000000 0.000000 0.000000 -0.000000 0.000000 0.000000 -0.000000 7.332024 -8.349879 -4.983983 -55.722611 4.391784 40.119116 -0.000092 -88.385400 -0.000236 -14.713063 -3.859715 6.890474 -57.720137 6.319379 -3.124363 -82.516745 6.820182 -5.984541 -77.165414 6.715659 -5.373517 7.569337 15.360254 7.989525 -10.834885 6.820025 18.974639 13.440327 40.288304 3.931442 -56.368579 6.125915 -2.973344 -85.447705 6.856747 -6.333623 -77.934135 6.727681 -5.443727 -59.851781 6.611278 -3.389405 -77.879756 6.726348 -5.437358 -76.334108 6.695176 -5.275779 -61.555781 10.941185 -3.617472 -74.159822 5.505921 -1.072549 -75.746540 6.668402 -5.188547 1.549710 4.589170 0.980780 59.143923 -14.266454 -3.812492 0.000033 67.885400 0.000023 7.609056 2.546714 9.310958 5.785725 6.649719 0.029233 13.820776 -1.666810 -0.202023 10.238305 -1.240328 -0.111120 -9.627227 -17.277203 1.434959 1.152651 -3.466083 2.146108 -2.574099 2.490602 -2.793040 3.481456 7.882289 0.097174 10.443753 -1.264977 -0.115626 7.243605 -0.879973 -0.055687 8.513493 5.494098 -0.044459 18.414236 -2.203617 -0.357232 13.743179 -1.657670 -0.199790 10.692229 4.785443 -0.096741 22.468024 -2.665386 -0.529496 16.114865 -1.936498 -0.274181 -1.118240 -12.318221 -37.771618 -4.060377 -5.118428 69.808567 6.823008 -5.838193 -0.608398 -2.222670 -0.411108 -24.824582 -0.303458 17.311427 -16.014048 14.883609 -0.160267 36.011763 -6.062755 28.548823 -14.437263 -0.000021 0.000050 -4.361540 
-1.414150 91.846700 575.166600 4.788100 25.391816 10.521702 0.660786 -4.089184 10.600798 0.906900 -0.565301 -0.251491 0.907145 -0.556563 -0.116720 6.020565 -2.609866 2.680042 -7.597177 -3.853761 -11.633070 0.000000 0.000000 0.000000 0.000000 0.000000 0.000000 0.000000 0.000000 0.000000 7.408730 -7.930955 -4.945318 -53.791584 3.319061 40.662405 -0.000333 -89.633200 0.000539 -15.300775 -3.903428 6.582487 -58.074990 6.299182 -3.143890 -82.534934 6.820473 -5.986690 -77.140161 6.716195 -5.347210 7.506840 15.318704 7.992273 -10.834885 6.820025 18.974639 13.435579 40.283785 3.926179 -56.717521 6.233389 -2.998997 -85.447705 6.856747 -6.333623 -77.917973 6.727274 -5.441839 -60.228094 6.436112 -3.403808 -77.898050 6.726782 -5.439497 -76.296418 6.695833 -5.242175 -61.963376 10.630914 -3.630221 -74.159822 5.505921 -1.072549 -75.697241 6.666968 -5.182833 1.662236 5.614873 1.093949 56.453154 -14.832996 -3.233295 -0.000070 68.417600 -0.000068 7.676544 3.124729 9.001133 6.059502 6.323240 0.010009 13.034538 -1.573742 -0.179819 10.074192 -1.220698 -0.107592 -9.668027 -17.331395 1.448090 1.152651 -3.466083 2.146108 -2.565070 2.447540 -2.765465 3.959720 7.426973 0.081384 9.173663 -1.112589 -0.089271 7.169440 -0.871002 -0.054569 8.552887 5.308367 -0.063804 18.141645 -2.172130 -0.346821 13.563057 -1.636341 -0.194600 10.539239 4.709321 -0.112800 22.619912 -2.682443 -0.536560 15.904010 -1.911839 -0.267077 -1.818356 -12.404159 -42.614044 -5.168739 -5.673179 72.818008 7.100127 -7.197007 -0.107811 -0.590883 -0.117698 -21.807948 0.680816 16.998395 -16.067665 14.363065 -0.649324 36.980671 -9.230151 28.496035 -16.607163 -0.000004 0.000016 -4.941000 
